<svg width="92" height="24" viewBox="0 0 92 24" fill="none" xmlns="http://www.w3.org/2000/svg">
<path d="M51.9057 23.3795H56.011C56.0509 23.3823 56.091 23.377 56.1288 23.3641C56.1666 23.3512 56.2014 23.3309 56.2309 23.3044C56.2605 23.2779 56.2842 23.2457 56.3007 23.2099C56.3172 23.1741 56.3261 23.1354 56.3269 23.0961V11.9579C56.3269 8.79952 57.9064 7.13528 60.6334 7.13528C63.3604 7.13528 64.911 8.79952 64.911 11.9579V23.0975C64.9118 23.1368 64.9207 23.1755 64.9372 23.2113C64.9537 23.2472 64.9775 23.2793 65.0071 23.3058C65.0366 23.3323 65.0713 23.3526 65.1091 23.3656C65.1469 23.3785 65.187 23.3837 65.2269 23.3809H69.3322C69.3721 23.3837 69.4122 23.3785 69.45 23.3656C69.4878 23.3526 69.5226 23.3323 69.5521 23.3058C69.5817 23.2793 69.6054 23.2472 69.6219 23.2113C69.6384 23.1755 69.6473 23.1368 69.6481 23.0975V11.9863C69.6481 7.21959 66.95 3.0459 60.6327 3.0459C54.3154 3.0459 51.5898 7.21959 51.5898 11.9863V23.0975C51.5908 23.1367 51.5999 23.1753 51.6165 23.2109C51.633 23.2465 51.6568 23.2785 51.6864 23.3049C51.7159 23.3312 51.7506 23.3514 51.7883 23.3643C51.826 23.3771 51.8659 23.3823 51.9057 23.3795Z" fill="#00A868"/>
<path d="M23.6568 23.6337C25.1497 23.6337 26.1255 23.4644 26.5561 23.295C26.6203 23.2698 26.676 23.2273 26.7167 23.1724C26.7574 23.1175 26.7815 23.0525 26.7862 22.9847V19.6548C26.7862 19.4572 26.6996 19.3445 26.4414 19.3445C26.2402 19.3445 25.6661 19.4572 25.2067 19.4572C23.4267 19.4572 22.6521 18.8089 22.6521 17.2857V7.89679H26.4414C26.525 7.89605 26.6049 7.86312 26.664 7.80508C26.7231 7.74705 26.7566 7.66855 26.7573 7.58647V3.9484C26.7566 3.86632 26.7231 3.78782 26.664 3.72978C26.6049 3.67175 26.525 3.63882 26.4414 3.63808H22.5086V0.479645C22.5086 0.140988 22.3643 0 22.1061 0H18.2302C17.915 0 17.7715 0.141697 17.7715 0.479645V17.7667C17.7715 21.9695 20.1537 23.6337 23.6568 23.6337Z" fill="#00A868"/>
<path d="M7.17845 23.8591C11.8008 23.8591 15.1027 21.0669 15.1027 17.4289C15.1027 13.3395 12.3461 12.1556 8.58558 11.3656L6.71902 10.971C5.31261 10.6607 4.53729 10.0117 4.53729 8.91215C4.53729 7.50226 5.97254 6.74064 7.95378 6.74064C10.7385 6.74064 12.6331 7.98119 12.9202 7.98119C13 7.97599 13.0768 7.94966 13.1426 7.905C13.2084 7.86035 13.2606 7.79903 13.2938 7.72756L14.0403 4.99209C14.1845 4.62509 14.155 4.54079 13.896 4.3998C12.2307 3.55386 10.4507 3.07422 7.92421 3.07422C3.24483 3.07422 0 5.72537 0 9.2508C0 12.5807 2.61303 14.4114 6.34687 15.2021L8.24155 15.5967C9.76335 15.907 10.6216 16.4993 10.6216 17.7682C10.6216 19.0655 9.58809 20.1934 7.14744 20.1934C3.7021 20.1934 1.34799 18.8402 0.975109 18.8402C0.745035 18.8402 0.659209 18.9528 0.573382 19.3191L0.0851052 21.604C-0.0591418 22.0829 0.0851055 22.3932 0.401006 22.5342C1.57878 23.1825 4.79405 23.8591 7.17845 23.8591Z" fill="#00A868"/>
<path d="M38.5 19.9391C35.4852 19.9391 32.7301 17.7109 32.7301 13.5088C32.7301 9.30679 35.4859 7.13245 38.5 7.13245C41.5429 7.13245 44.2417 9.30396 44.2417 13.5088C44.2417 17.7392 41.5429 19.9391 38.5 19.9391ZM38.5 24.0001C44.5288 24.0001 48.9211 19.5728 48.9211 13.5088C48.9211 7.44489 44.5288 3.0459 38.5 3.0459C32.4993 3.0459 28.0781 7.4456 28.0781 13.5088C28.0781 19.5721 32.4993 24.0001 38.5 24.0001Z" fill="#00A868"/>
<path d="M91.9998 13.2835C91.9998 7.04885 88.3532 3.0459 82.5516 3.0459C77.0969 3.0459 72.3887 7.16362 72.3887 13.4245C72.3887 20.1084 77.2116 24.0001 82.3792 24.0001C86.7146 24.0001 89.2158 22.3217 90.7628 20.2777C91.0622 19.8817 91.1235 19.7109 91.1235 19.6004C91.1235 19.4899 91.0513 19.4034 90.791 19.1753L88.9821 17.6244C88.5494 17.2581 88.4051 17.1448 88.2609 17.1448C88.1166 17.1448 88.0308 17.2298 87.9161 17.3708C86.6814 19.0067 84.9591 19.9369 82.6338 19.9369C79.7005 19.9369 77.746 17.9794 77.2498 14.8039H90.4981C91.4221 14.8061 91.9998 14.5205 91.9998 13.2835ZM82.3814 6.96596C85.5144 6.96596 87.1725 9.04253 87.2627 11.3373H77.3198C77.8643 8.8732 79.5671 6.96596 82.3814 6.96596Z" fill="#00A868"/>
</svg>
